<?xml version="1.0" encoding="UTF-8"?>
<svg xmlns="http://www.w3.org/2000/svg" version="1.1" xmlns:xlink="http://www.w3.org/1999/xlink" viewBox="0 0 624.96 290.16">
  <defs>
    <style>
      .cls-1 {
        stroke: #ccc;
      }

      .cls-1, .cls-2, .cls-3, .cls-4, .cls-5, .cls-6, .cls-7, .cls-8, .cls-9, .cls-10, .cls-11 {
        fill: none;
      }

      .cls-1, .cls-12 {
        opacity: .8;
      }

      .cls-1, .cls-8, .cls-9, .cls-10 {
        stroke-miterlimit: 10;
      }

      .cls-13 {
        clip-path: url(#clippath-21);
      }

      .cls-14 {
        clip-path: url(#clippath-6);
      }

      .cls-15 {
        clip-path: url(#clippath-7);
      }

      .cls-16 {
        clip-path: url(#clippath-17);
      }

      .cls-17 {
        clip-path: url(#clippath-15);
      }

      .cls-2 {
        stroke: #b0b0b0;
        stroke-dasharray: 1.85 .8;
        stroke-width: .5px;
      }

      .cls-2, .cls-3, .cls-4, .cls-5, .cls-7, .cls-11 {
        stroke-linejoin: round;
      }

      .cls-3, .cls-4, .cls-7 {
        stroke-width: 1.5px;
      }

      .cls-3, .cls-5 {
        stroke: #1f77b4;
      }

      .cls-3, .cls-10 {
        stroke-linecap: square;
      }

      .cls-18 {
        clip-path: url(#clippath-18);
      }

      .cls-19 {
        clip-path: url(#clippath-4);
      }

      .cls-4 {
        stroke-dasharray: 5.55 2.4;
      }

      .cls-4, .cls-9 {
        stroke: #ff7f0e;
      }

      .cls-20 {
        clip-path: url(#clippath-22);
      }

      .cls-21 {
        clip-path: url(#clippath-23);
      }

      .cls-22 {
        clip-path: url(#clippath-9);
      }

      .cls-23 {
        clip-path: url(#clippath-10);
      }

      .cls-24, .cls-12 {
        fill: #fff;
      }

      .cls-25 {
        clip-path: url(#clippath-25);
      }

      .cls-26 {
        clip-path: url(#clippath-27);
      }

      .cls-27 {
        clip-path: url(#clippath-11);
      }

      .cls-28 {
        clip-path: url(#clippath-28);
      }

      .cls-7 {
        stroke-dasharray: 9.6 2.4 1.5 2.4;
      }

      .cls-7, .cls-8 {
        stroke: #2ca02c;
      }

      .cls-29 {
        clip-path: url(#clippath-1);
      }

      .cls-30 {
        clip-path: url(#clippath-5);
      }

      .cls-31 {
        clip-path: url(#clippath-20);
      }

      .cls-32 {
        clip-path: url(#clippath-8);
      }

      .cls-33 {
        clip-path: url(#clippath-3);
      }

      .cls-34 {
        clip-path: url(#clippath-26);
      }

      .cls-35 {
        clip-path: url(#clippath-12);
      }

      .cls-36 {
        fill: #2ca02c;
      }

      .cls-37 {
        clip-path: url(#clippath-14);
      }

      .cls-38 {
        clip-path: url(#clippath-19);
      }

      .cls-10, .cls-11 {
        stroke: #000;
        stroke-width: .8px;
      }

      .cls-39 {
        clip-path: url(#clippath-16);
      }

      .cls-40 {
        clip-path: url(#clippath-2);
      }

      .cls-41 {
        clip-path: url(#clippath-13);
      }

      .cls-42 {
        fill: #1f77b4;
      }

      .cls-43 {
        clip-path: url(#clippath-24);
      }

      .cls-44 {
        clip-path: url(#clippath);
      }

      .cls-45 {
        fill: #ff7f0e;
      }
    </style>
    <clipPath id="clippath">
      <rect class="cls-6" x="78.12" y="34.82" width="484.34" height="223.42"/>
    </clipPath>
    <clipPath id="clippath-1">
      <rect class="cls-6" x="78.12" y="34.82" width="484.34" height="223.42"/>
    </clipPath>
    <clipPath id="clippath-2">
      <rect class="cls-6" x="78.12" y="34.82" width="484.34" height="223.42"/>
    </clipPath>
    <clipPath id="clippath-3">
      <rect class="cls-6" x="78.12" y="34.82" width="484.34" height="223.42"/>
    </clipPath>
    <clipPath id="clippath-4">
      <rect class="cls-6" x="78.12" y="34.82" width="484.34" height="223.42"/>
    </clipPath>
    <clipPath id="clippath-5">
      <rect class="cls-6" x="78.12" y="34.82" width="484.34" height="223.42"/>
    </clipPath>
    <clipPath id="clippath-6">
      <rect class="cls-6" x="78.12" y="34.82" width="484.34" height="223.42"/>
    </clipPath>
    <clipPath id="clippath-7">
      <rect class="cls-6" x="78.12" y="34.82" width="484.34" height="223.42"/>
    </clipPath>
    <clipPath id="clippath-8">
      <rect class="cls-6" x="78.12" y="34.82" width="484.34" height="223.42"/>
    </clipPath>
    <clipPath id="clippath-9">
      <rect class="cls-6" x="78.12" y="34.82" width="484.34" height="223.42"/>
    </clipPath>
    <clipPath id="clippath-10">
      <rect class="cls-6" x="78.12" y="34.82" width="484.34" height="223.42"/>
    </clipPath>
    <clipPath id="clippath-11">
      <rect class="cls-6" x="78.12" y="34.82" width="484.34" height="223.42"/>
    </clipPath>
    <clipPath id="clippath-12">
      <rect class="cls-6" x="78.12" y="34.82" width="484.34" height="223.42"/>
    </clipPath>
    <clipPath id="clippath-13">
      <rect class="cls-6" x="78.12" y="34.82" width="484.34" height="223.42"/>
    </clipPath>
    <clipPath id="clippath-14">
      <rect class="cls-6" x="78.12" y="34.82" width="484.34" height="223.42"/>
    </clipPath>
    <clipPath id="clippath-15">
      <rect class="cls-6" x="92.14" y="240.09" width="16" height="16"/>
    </clipPath>
    <clipPath id="clippath-16">
      <rect class="cls-6" x="238.91" y="235.04" width="16" height="16"/>
    </clipPath>
    <clipPath id="clippath-17">
      <rect class="cls-6" x="385.68" y="228.84" width="16" height="16"/>
    </clipPath>
    <clipPath id="clippath-18">
      <rect class="cls-6" x="532.45" y="224.01" width="16" height="16"/>
    </clipPath>
    <clipPath id="clippath-19">
      <rect class="cls-6" x="78.12" y="34.82" width="484.34" height="223.42"/>
    </clipPath>
    <clipPath id="clippath-20">
      <rect class="cls-6" x="92.14" y="222.61" width="16" height="16"/>
    </clipPath>
    <clipPath id="clippath-21">
      <rect class="cls-6" x="238.91" y="200.85" width="16" height="16"/>
    </clipPath>
    <clipPath id="clippath-22">
      <rect class="cls-6" x="385.68" y="180.08" width="16" height="16"/>
    </clipPath>
    <clipPath id="clippath-23">
      <rect class="cls-6" x="532.45" y="157.13" width="16" height="16"/>
    </clipPath>
    <clipPath id="clippath-24">
      <rect class="cls-6" x="78.12" y="34.82" width="484.34" height="223.42"/>
    </clipPath>
    <clipPath id="clippath-25">
      <rect class="cls-6" x="92.14" y="192.93" width="16" height="16"/>
    </clipPath>
    <clipPath id="clippath-26">
      <rect class="cls-6" x="238.91" y="139.01" width="16" height="16"/>
    </clipPath>
    <clipPath id="clippath-27">
      <rect class="cls-6" x="385.68" y="91.18" width="16" height="16"/>
    </clipPath>
    <clipPath id="clippath-28">
      <rect class="cls-6" x="532.45" y="36.97" width="16" height="16"/>
    </clipPath>
  </defs>
  <!-- Generator: Adobe Illustrator 28.7.1, SVG Export Plug-In . SVG Version: 1.2.0 Build 142)  -->
  <g>
    <g id="Layer_1">
      <rect class="cls-24" width="624.96" height="290.16"/>
      <rect class="cls-24" x="78.12" y="34.82" width="484.34" height="223.42"/>
      <g class="cls-44">
        <line class="cls-2" x1="100.14" y1="258.24" x2="100.14" y2="34.82"/>
      </g>
      <line x1="100.14" y1="258.24" x2="100.14" y2="261.74"/>
      <line class="cls-11" x1="100.14" y1="258.24" x2="100.14" y2="261.74"/>
      <polygon points="91.84 272.01 93.45 272.01 93.45 266.45 91.7 266.8 91.7 265.9 93.44 265.55 94.43 265.55 94.43 272.01 96.04 272.01 96.04 272.84 91.84 272.84 91.84 272.01"/>
      <path d="M100.14,265.42c.81,0,1.43.33,1.87.97.43.65.65,1.59.65,2.81s-.22,2.17-.65,2.81c-.44.64-1.06.96-1.88.96s-1.44-.32-1.87-.96-.64-1.58-.64-2.81.21-2.16.64-2.81c.43-.64,1.06-.97,1.88-.97ZM100.14,266.2c-.51,0-.89.25-1.15.75s-.38,1.25-.38,2.25.12,1.75.38,2.25.64.75,1.15.75.89-.25,1.15-.75c.25-.5.38-1.25.38-2.25s-.13-1.75-.38-2.25c-.26-.5-.64-.75-1.15-.75Z"/>
      <path d="M106.5,265.42c.81,0,1.43.33,1.87.97.43.65.65,1.59.65,2.81s-.22,2.17-.65,2.81c-.44.64-1.06.96-1.88.96s-1.44-.32-1.87-.96-.64-1.58-.64-2.81.21-2.16.64-2.81c.43-.64,1.06-.97,1.88-.97ZM106.5,266.2c-.51,0-.89.25-1.15.75s-.38,1.25-.38,2.25.12,1.75.38,2.25.64.75,1.15.75.89-.25,1.15-.75c.25-.5.38-1.25.38-2.25s-.13-1.75-.38-2.25c-.26-.5-.64-.75-1.15-.75Z"/>
      <g class="cls-29">
        <line class="cls-2" x1="173.52" y1="258.24" x2="173.52" y2="34.82"/>
      </g>
      <line x1="173.52" y1="258.24" x2="173.52" y2="261.74"/>
      <line class="cls-11" x1="173.52" y1="258.24" x2="173.52" y2="261.74"/>
      <polygon points="165.22 272.01 166.83 272.01 166.83 266.45 165.08 266.8 165.08 265.9 166.82 265.55 167.81 265.55 167.81 272.01 169.42 272.01 169.42 272.84 165.22 272.84 165.22 272.01"/>
      <path d="M171.42,265.55h3.87v.83h-2.97v1.79c.14-.05.29-.09.43-.11s.29-.04.43-.04c.81,0,1.45.23,1.93.67.48.45.72,1.05.72,1.81s-.25,1.4-.74,1.83-1.18.64-2.06.64c-.31,0-.62-.03-.94-.07-.32-.05-.64-.12-.98-.23v-.99c.29.16.59.28.91.36.31.08.64.11.99.11.56,0,1.01-.14,1.34-.44.32-.3.49-.7.49-1.21s-.17-.9-.49-1.2c-.33-.3-.78-.45-1.34-.45-.26,0-.53.03-.79.09-.26.06-.53.15-.8.27v-3.66Z"/>
      <path d="M179.88,265.42c.81,0,1.43.33,1.87.97.43.65.65,1.59.65,2.81s-.22,2.17-.65,2.81c-.44.64-1.06.96-1.88.96s-1.44-.32-1.87-.96c-.43-.64-.64-1.58-.64-2.81s.21-2.16.64-2.81c.43-.64,1.06-.97,1.88-.97ZM179.88,266.2c-.51,0-.89.25-1.15.75s-.38,1.25-.38,2.25.12,1.75.38,2.25.64.75,1.15.75.89-.25,1.15-.75c.25-.5.38-1.25.38-2.25s-.13-1.75-.38-2.25c-.26-.5-.64-.75-1.15-.75Z"/>
      <g class="cls-40">
        <line class="cls-2" x1="246.91" y1="258.24" x2="246.91" y2="34.82"/>
      </g>
      <line x1="246.91" y1="258.24" x2="246.91" y2="261.74"/>
      <line class="cls-11" x1="246.91" y1="258.24" x2="246.91" y2="261.74"/>
      <path d="M239.29,272.01h3.44v.83h-4.63v-.83c.37-.38.88-.9,1.53-1.56.64-.65,1.05-1.07,1.22-1.26.32-.35.54-.65.66-.9.12-.24.19-.49.19-.73,0-.38-.14-.7-.41-.94-.27-.24-.62-.37-1.06-.37-.31,0-.64.06-.98.16-.34.11-.71.27-1.1.49v-1c.4-.16.77-.28,1.11-.36s.66-.12.95-.12c.75,0,1.35.19,1.8.57s.68.88.68,1.51c0,.3-.06.59-.17.85-.11.27-.31.59-.61.95-.08.1-.34.37-.78.82-.44.45-1.05,1.08-1.84,1.89Z"/>
      <path d="M246.91,265.42c.81,0,1.43.33,1.87.97.43.65.65,1.59.65,2.81s-.22,2.17-.65,2.81c-.44.64-1.06.96-1.88.96s-1.44-.32-1.87-.96c-.43-.64-.64-1.58-.64-2.81s.21-2.16.64-2.81c.43-.64,1.06-.97,1.88-.97ZM246.91,266.2c-.51,0-.89.25-1.15.75s-.38,1.25-.38,2.25.12,1.75.38,2.25.64.75,1.15.75.89-.25,1.15-.75c.25-.5.38-1.25.38-2.25s-.13-1.75-.38-2.25c-.26-.5-.64-.75-1.15-.75Z"/>
      <path d="M253.27,265.42c.81,0,1.43.33,1.87.97.43.65.65,1.59.65,2.81s-.22,2.17-.65,2.81c-.44.64-1.06.96-1.88.96s-1.44-.32-1.87-.96c-.43-.64-.64-1.58-.64-2.81s.21-2.16.64-2.81c.43-.64,1.06-.97,1.88-.97ZM253.27,266.2c-.51,0-.89.25-1.15.75s-.38,1.25-.38,2.25.12,1.75.38,2.25.64.75,1.15.75.89-.25,1.15-.75c.25-.5.38-1.25.38-2.25s-.13-1.75-.38-2.25c-.26-.5-.64-.75-1.15-.75Z"/>
      <g class="cls-33">
        <line class="cls-2" x1="320.29" y1="258.24" x2="320.29" y2="34.82"/>
      </g>
      <line x1="320.29" y1="258.24" x2="320.29" y2="261.74"/>
      <line class="cls-11" x1="320.29" y1="258.24" x2="320.29" y2="261.74"/>
      <path d="M312.67,272.01h3.44v.83h-4.63v-.83c.37-.38.88-.9,1.53-1.56.64-.65,1.05-1.07,1.22-1.26.32-.35.54-.65.66-.9.12-.24.19-.49.19-.73,0-.38-.14-.7-.41-.94-.27-.24-.62-.37-1.06-.37-.31,0-.64.06-.98.16-.34.11-.71.27-1.1.49v-1c.4-.16.77-.28,1.11-.36.34-.08.66-.12.95-.12.75,0,1.35.19,1.8.57.45.38.68.88.68,1.51,0,.3-.06.59-.17.85-.11.27-.31.59-.61.95-.08.1-.34.37-.78.82-.44.45-1.05,1.08-1.84,1.89Z"/>
      <path d="M318.19,265.55h3.87v.83h-2.97v1.79c.14-.05.29-.09.43-.11.14-.02.29-.04.43-.04.81,0,1.45.23,1.93.67.48.45.72,1.05.72,1.81s-.25,1.4-.74,1.83-1.18.64-2.06.64c-.31,0-.62-.03-.94-.07-.32-.05-.64-.12-.98-.23v-.99c.29.16.59.28.91.36.31.08.64.11.99.11.56,0,1.01-.14,1.34-.44.32-.3.49-.7.49-1.21s-.17-.9-.49-1.2c-.33-.3-.78-.45-1.34-.45-.26,0-.53.03-.79.09-.26.06-.53.15-.8.27v-3.66Z"/>
      <path d="M326.65,265.42c.81,0,1.43.33,1.87.97.43.65.65,1.59.65,2.81s-.22,2.17-.65,2.81c-.44.64-1.06.96-1.88.96s-1.44-.32-1.87-.96c-.43-.64-.64-1.58-.64-2.81s.21-2.16.64-2.81c.43-.64,1.06-.97,1.88-.97ZM326.65,266.2c-.51,0-.89.25-1.15.75s-.38,1.25-.38,2.25.12,1.75.38,2.25.64.75,1.15.75.89-.25,1.15-.75c.25-.5.38-1.25.38-2.25s-.13-1.75-.38-2.25c-.26-.5-.64-.75-1.15-.75Z"/>
      <g class="cls-19">
        <line class="cls-2" x1="393.68" y1="258.24" x2="393.68" y2="34.82"/>
      </g>
      <line x1="393.68" y1="258.24" x2="393.68" y2="261.74"/>
      <line class="cls-11" x1="393.68" y1="258.24" x2="393.68" y2="261.74"/>
      <path d="M388.2,268.91c.47.1.84.31,1.1.63.26.32.4.72.4,1.18,0,.72-.25,1.28-.74,1.67-.5.39-1.2.58-2.11.58-.31,0-.63-.03-.95-.09-.32-.05-.66-.14-1-.26v-.95c.27.16.57.28.9.36.32.08.66.12,1.02.12.62,0,1.09-.12,1.41-.36.32-.24.49-.6.49-1.07,0-.42-.15-.76-.45-1-.3-.24-.72-.37-1.26-.37h-.85v-.81h.89c.48,0,.85-.09,1.11-.29.26-.19.39-.47.39-.84s-.14-.66-.4-.86c-.27-.2-.65-.3-1.14-.3-.27,0-.56.03-.87.09s-.65.15-1.02.27v-.88c.37-.1.72-.18,1.05-.23.32-.05.63-.08.93-.08.74,0,1.33.17,1.77.51.44.34.66.8.66,1.38,0,.4-.12.74-.35,1.02-.23.28-.56.48-.98.58Z"/>
      <path d="M393.68,265.42c.81,0,1.43.33,1.87.97.43.65.65,1.59.65,2.81s-.22,2.17-.65,2.81c-.44.64-1.06.96-1.88.96s-1.44-.32-1.87-.96c-.43-.64-.64-1.58-.64-2.81s.21-2.16.64-2.81c.43-.64,1.06-.97,1.88-.97ZM393.68,266.2c-.51,0-.89.25-1.15.75s-.38,1.25-.38,2.25.12,1.75.38,2.25.64.75,1.15.75.89-.25,1.15-.75c.25-.5.38-1.25.38-2.25s-.13-1.75-.38-2.25c-.26-.5-.64-.75-1.15-.75Z"/>
      <path d="M400.04,265.42c.81,0,1.43.33,1.87.97.43.65.65,1.59.65,2.81s-.22,2.17-.65,2.81c-.44.64-1.06.96-1.88.96s-1.44-.32-1.87-.96c-.43-.64-.64-1.58-.64-2.81s.21-2.16.64-2.81c.43-.64,1.06-.97,1.88-.97ZM400.04,266.2c-.51,0-.89.25-1.15.75s-.38,1.25-.38,2.25.12,1.75.38,2.25.64.75,1.15.75.89-.25,1.15-.75c.25-.5.38-1.25.38-2.25s-.13-1.75-.38-2.25c-.26-.5-.64-.75-1.15-.75Z"/>
      <g class="cls-30">
        <line class="cls-2" x1="467.06" y1="258.24" x2="467.06" y2="34.82"/>
      </g>
      <line x1="467.06" y1="258.24" x2="467.06" y2="261.74"/>
      <line class="cls-11" x1="467.06" y1="258.24" x2="467.06" y2="261.74"/>
      <path d="M461.58,268.91c.47.1.84.31,1.1.63.26.32.4.72.4,1.18,0,.72-.25,1.28-.74,1.67-.5.39-1.2.58-2.11.58-.31,0-.63-.03-.95-.09-.32-.05-.66-.14-1-.26v-.95c.27.16.57.28.9.36.32.08.66.12,1.02.12.62,0,1.09-.12,1.41-.36.32-.24.49-.6.49-1.07,0-.42-.15-.76-.45-1-.3-.24-.72-.37-1.26-.37h-.85v-.81h.89c.48,0,.85-.09,1.11-.29.26-.19.39-.47.39-.84s-.14-.66-.4-.86c-.27-.2-.65-.3-1.14-.3-.27,0-.56.03-.87.09s-.65.15-1.02.27v-.88c.37-.1.72-.18,1.05-.23.32-.05.63-.08.93-.08.74,0,1.33.17,1.77.51.44.34.66.8.66,1.38,0,.4-.12.74-.35,1.02-.23.28-.56.48-.98.58Z"/>
      <path d="M464.96,265.55h3.87v.83h-2.97v1.79c.14-.05.29-.09.43-.11.14-.02.29-.04.43-.04.81,0,1.45.23,1.93.67.48.45.72,1.05.72,1.81s-.25,1.4-.74,1.83-1.18.64-2.06.64c-.31,0-.62-.03-.94-.07-.32-.05-.64-.12-.98-.23v-.99c.29.16.59.28.91.36.31.08.64.11.99.11.56,0,1.01-.14,1.34-.44.32-.3.49-.7.49-1.21s-.17-.9-.49-1.2c-.33-.3-.78-.45-1.34-.45-.26,0-.53.03-.79.09-.26.06-.53.15-.8.27v-3.66Z"/>
      <path d="M473.42,265.42c.81,0,1.43.33,1.87.97.43.65.65,1.59.65,2.81s-.22,2.17-.65,2.81c-.44.64-1.06.96-1.88.96s-1.44-.32-1.87-.96c-.43-.64-.64-1.58-.64-2.81s.21-2.16.64-2.81c.43-.64,1.06-.97,1.88-.97ZM473.42,266.2c-.51,0-.89.25-1.15.75s-.38,1.25-.38,2.25.12,1.75.38,2.25.64.75,1.15.75.89-.25,1.15-.75c.25-.5.38-1.25.38-2.25s-.13-1.75-.38-2.25c-.26-.5-.64-.75-1.15-.75Z"/>
      <g class="cls-14">
        <line class="cls-2" x1="540.45" y1="258.24" x2="540.45" y2="34.82"/>
      </g>
      <line x1="540.45" y1="258.24" x2="540.45" y2="261.74"/>
      <line class="cls-11" x1="540.45" y1="258.24" x2="540.45" y2="261.74"/>
      <path d="M534.43,265.55h1.24v4.75h1.04v.82h-1.04v1.72h-.98v-1.72h-3.29v-.95l3.03-4.62ZM534.69,266.41l-2.49,3.89h2.49v-3.89Z"/>
      <path d="M540.45,265.42c.81,0,1.43.33,1.87.97.43.65.65,1.59.65,2.81s-.22,2.17-.65,2.81c-.44.64-1.06.96-1.88.96s-1.44-.32-1.87-.96-.64-1.58-.64-2.81.21-2.16.64-2.81c.43-.64,1.06-.97,1.88-.97ZM540.45,266.2c-.51,0-.89.25-1.15.75-.26.5-.38,1.25-.38,2.25s.12,1.75.38,2.25c.26.5.64.75,1.15.75s.89-.25,1.15-.75c.25-.5.38-1.25.38-2.25s-.13-1.75-.38-2.25c-.26-.5-.64-.75-1.15-.75Z"/>
      <path d="M546.81,265.42c.81,0,1.43.33,1.87.97.43.65.65,1.59.65,2.81s-.22,2.17-.65,2.81c-.44.64-1.06.96-1.88.96s-1.44-.32-1.87-.96-.64-1.58-.64-2.81.21-2.16.64-2.81c.43-.64,1.06-.97,1.88-.97ZM546.81,266.2c-.51,0-.89.25-1.15.75-.26.5-.38,1.25-.38,2.25s.12,1.75.38,2.25c.26.5.64.75,1.15.75s.89-.25,1.15-.75c.25-.5.38-1.25.38-2.25s-.13-1.75-.38-2.25c-.26-.5-.64-.75-1.15-.75Z"/>
      <polygon points="269.9 279.22 271.23 279.22 274.46 285.32 274.46 279.22 275.42 279.22 275.42 286.51 274.09 286.51 270.86 280.41 270.86 286.51 269.9 286.51 269.9 279.22"/>
      <path d="M279.51,280.91h0ZM277.25,284.35v-3.31h.9v3.28c0,.52.1.9.3,1.16.2.26.5.39.91.39.48,0,.87-.15,1.15-.46.28-.31.42-.73.42-1.27v-3.1h.9v5.47h-.9v-.84c-.22.34-.48.58-.76.74-.29.15-.62.23-1,.23-.63,0-1.11-.19-1.43-.58-.33-.38-.49-.95-.49-1.71Z"/>
      <path d="M287.94,282.09c.22-.4.49-.69.8-.89.31-.19.68-.29,1.11-.29.56,0,1,.2,1.31.6.31.4.47.97.47,1.7v3.3h-.9v-3.27c0-.52-.1-.91-.28-1.17-.19-.25-.47-.38-.85-.38-.47,0-.84.16-1.11.47-.27.31-.4.73-.4,1.26v3.09h-.9v-3.27c0-.52-.1-.91-.28-1.17-.19-.25-.48-.38-.86-.38-.46,0-.83.16-1.1.47-.27.31-.4.73-.4,1.26v3.09h-.9v-5.47h.9v.85c.2-.33.45-.58.74-.74.28-.16.62-.24,1.02-.24s.73.1,1.01.3c.28.2.48.5.62.88Z"/>
      <path d="M294.29,281.87c.18-.32.42-.56.71-.72.29-.16.64-.24,1.04-.24.66,0,1.2.27,1.62.79.41.53.62,1.22.62,2.08s-.21,1.56-.62,2.08c-.42.52-.96.78-1.62.78-.4,0-.75-.08-1.04-.23-.29-.15-.53-.39-.71-.72v.82h-.9v-7.6h.9v2.96ZM297.35,283.78c0-.66-.14-1.17-.41-1.55-.28-.38-.65-.57-1.12-.57s-.85.19-1.12.57c-.28.38-.41.89-.41,1.55s.13,1.18.41,1.56c.27.38.64.56,1.12.56s.84-.18,1.12-.56c.27-.38.41-.9.41-1.56Z"/>
      <path d="M303.55,283.29c-.01-.49-.15-.88-.41-1.18-.27-.29-.63-.44-1.07-.44-.5,0-.9.15-1.2.43-.3.28-.48.68-.52,1.19h3.2ZM304.45,283.55v.44h-4.13c.04.62.22,1.1.56,1.42.33.32.79.48,1.39.48.34,0,.68-.04,1-.12s.65-.21.97-.39v.85c-.32.14-.65.25-.99.31-.34.06-.69.1-1.03.1-.88,0-1.57-.25-2.08-.75s-.76-1.19-.76-2.06.24-1.6.72-2.13c.48-.52,1.14-.79,1.96-.79.74,0,1.32.24,1.75.71.42.48.64,1.12.64,1.93Z"/>
      <path d="M309.09,281.88c-.1-.06-.21-.1-.33-.13-.12-.02-.25-.04-.39-.04-.51,0-.9.17-1.17.5-.28.33-.41.8-.41,1.42v2.88h-.9v-5.47h.9v.85c.18-.33.43-.58.73-.74.3-.16.67-.24,1.11-.24.06,0,.13,0,.21,0,.07.01.15.02.25.04v.92Z"/>
      <path d="M315.33,280.91c.78,0,1.39.26,1.84.76.44.51.67,1.21.67,2.11s-.23,1.6-.67,2.1c-.45.51-1.06.76-1.84.76s-1.41-.25-1.85-.76c-.44-.5-.66-1.2-.66-2.1s.22-1.6.66-2.11c.44-.5,1.06-.76,1.85-.76ZM315.33,281.67c-.48,0-.86.19-1.14.57s-.42.89-.42,1.54.13,1.17.41,1.55.66.56,1.15.56.86-.18,1.14-.56.42-.89.42-1.55-.14-1.16-.42-1.54-.66-.57-1.14-.57Z"/>
      <path d="M322.1,278.91v.75h-.86c-.32,0-.55.07-.67.2-.13.13-.19.36-.19.7v.48h1.48v.7h-1.48v4.77h-.9v-4.77h-.86v-.7h.86v-.38c0-.6.14-1.05.42-1.33.28-.28.73-.42,1.35-.42h.85Z"/>
      <polygon points="325.42 279.22 326.42 279.22 327.95 285.38 329.48 279.22 330.59 279.22 332.12 285.38 333.65 279.22 334.65 279.22 332.82 286.51 331.58 286.51 330.04 280.18 328.49 286.51 327.25 286.51 325.42 279.22"/>
      <path d="M339.56,283.39v3.12h-.9v-.83c-.21.34-.47.58-.77.73-.3.15-.68.23-1.12.23-.56,0-1.01-.15-1.34-.46-.33-.31-.49-.73-.49-1.26,0-.61.2-1.07.62-1.39.41-.31,1.02-.47,1.84-.47h1.26v-.09c0-.41-.14-.73-.41-.96-.27-.22-.65-.34-1.14-.34-.32,0-.62.04-.92.12-.3.08-.58.19-.85.33v-.83c.32-.12.64-.22.95-.28.31-.06.61-.1.91-.1.79,0,1.38.21,1.77.62.39.41.59,1.03.59,1.86ZM337.77,283.76c-.73,0-1.23.09-1.51.25-.28.17-.42.45-.42.85,0,.32.1.58.31.76.21.19.5.28.86.28.5,0,.9-.17,1.2-.53.3-.35.45-.82.45-1.41v-.2h-.89Z"/>
      <rect x="341.41" y="278.91" width=".9" height="7.6"/>
      <polygon points="344.16 278.91 345.06 278.91 345.06 283.4 347.74 281.04 348.89 281.04 345.99 283.6 349.01 286.51 347.84 286.51 345.06 283.84 345.06 286.51 344.16 286.51 344.16 278.91"/>
      <path d="M353.47,281.2v.85c-.26-.12-.52-.22-.79-.29-.28-.06-.56-.1-.85-.1-.45,0-.79.07-1.01.21-.22.14-.33.34-.33.61,0,.21.08.37.24.49.16.12.48.24.96.34l.31.07c.64.14,1.09.34,1.36.58.26.25.4.6.4,1.04,0,.51-.2.91-.6,1.2-.4.3-.96.44-1.66.44-.3,0-.6-.03-.92-.08-.32-.05-.65-.13-1-.25v-.93c.33.18.66.31.98.39.32.09.64.13.96.13.42,0,.75-.07.98-.21.22-.14.34-.35.34-.62,0-.24-.09-.43-.25-.56-.16-.13-.52-.26-1.08-.38l-.31-.07c-.56-.12-.97-.3-1.21-.54-.25-.24-.37-.57-.37-1,0-.51.18-.91.54-1.19.36-.28.88-.42,1.56-.42.33,0,.64.03.94.08.29.05.56.12.81.21Z"/>
      <path d="M360.53,278.92c-.44.76-.76,1.5-.97,2.23-.22.73-.32,1.47-.32,2.22s.1,1.5.32,2.23c.21.74.53,1.47.97,2.22h-.78c-.49-.77-.86-1.51-1.1-2.25-.24-.74-.36-1.47-.36-2.2s.12-1.45.36-2.19c.24-.74.6-1.49,1.1-2.26h.78Z"/>
      <path d="M366.82,283.21v3.3h-.9v-3.27c0-.52-.11-.9-.31-1.16s-.5-.39-.9-.39c-.49,0-.87.16-1.15.47-.28.31-.42.73-.42,1.26v3.09h-.9v-5.47h.9v.85c.21-.32.46-.57.76-.73.29-.16.63-.25,1.01-.25.62,0,1.1.2,1.42.59.32.39.49.96.49,1.71Z"/>
      <path d="M368.47,278.92h.78c.48.77.85,1.52,1.09,2.26.24.74.37,1.47.37,2.19s-.13,1.46-.37,2.2c-.24.74-.61,1.48-1.09,2.25h-.78c.43-.75.75-1.48.97-2.22.21-.73.32-1.47.32-2.23s-.11-1.49-.32-2.22c-.22-.73-.54-1.47-.97-2.23Z"/>
      <g class="cls-15">
        <line class="cls-2" x1="78.12" y1="254.07" x2="562.46" y2="254.07"/>
      </g>
      <line x1="78.12" y1="254.07" x2="74.62" y2="254.07"/>
      <line class="cls-11" x1="78.12" y1="254.07" x2="74.62" y2="254.07"/>
      <path d="M67.94,250.44c.81,0,1.43.33,1.87.97.43.65.65,1.59.65,2.81s-.22,2.17-.65,2.81c-.44.64-1.06.96-1.88.96s-1.44-.32-1.87-.96c-.43-.64-.64-1.58-.64-2.81s.21-2.16.64-2.81c.43-.64,1.06-.97,1.88-.97ZM67.94,251.22c-.51,0-.89.25-1.15.75s-.38,1.25-.38,2.25.12,1.75.38,2.25.64.75,1.15.75.89-.25,1.15-.75c.25-.5.38-1.25.38-2.25s-.13-1.75-.38-2.25c-.26-.5-.64-.75-1.15-.75Z"/>
      <g class="cls-32">
        <line class="cls-2" x1="78.12" y1="218.26" x2="562.46" y2="218.26"/>
      </g>
      <line x1="78.12" y1="218.26" x2="74.62" y2="218.26"/>
      <line class="cls-11" x1="78.12" y1="218.26" x2="74.62" y2="218.26"/>
      <polygon points="46.92 221.23 48.53 221.23 48.53 215.67 46.78 216.02 46.78 215.12 48.52 214.77 49.51 214.77 49.51 221.23 51.12 221.23 51.12 222.06 46.92 222.06 46.92 221.23"/>
      <path d="M55.22,214.64c.81,0,1.43.33,1.87.97.43.65.65,1.59.65,2.81s-.22,2.17-.65,2.81c-.44.64-1.06.96-1.88.96s-1.44-.32-1.87-.96-.64-1.58-.64-2.81.21-2.16.64-2.81c.43-.64,1.06-.97,1.88-.97ZM55.22,215.42c-.51,0-.89.25-1.15.75-.26.5-.38,1.25-.38,2.25s.12,1.75.38,2.25c.26.5.64.75,1.15.75s.89-.25,1.15-.75c.25-.5.38-1.25.38-2.25s-.13-1.75-.38-2.25c-.26-.5-.64-.75-1.15-.75Z"/>
      <path d="M61.58,214.64c.81,0,1.43.33,1.87.97.43.65.65,1.59.65,2.81s-.22,2.17-.65,2.81c-.44.64-1.06.96-1.88.96s-1.44-.32-1.87-.96-.64-1.58-.64-2.81.21-2.16.64-2.81c.43-.64,1.06-.97,1.88-.97ZM61.58,215.42c-.51,0-.89.25-1.15.75-.26.5-.38,1.25-.38,2.25s.12,1.75.38,2.25c.26.5.64.75,1.15.75s.89-.25,1.15-.75c.25-.5.38-1.25.38-2.25s-.13-1.75-.38-2.25c-.26-.5-.64-.75-1.15-.75Z"/>
      <path d="M67.94,214.64c.81,0,1.43.33,1.87.97.43.65.65,1.59.65,2.81s-.22,2.17-.65,2.81c-.44.64-1.06.96-1.88.96s-1.44-.32-1.87-.96-.64-1.58-.64-2.81.21-2.16.64-2.81c.43-.64,1.06-.97,1.88-.97ZM67.94,215.42c-.51,0-.89.25-1.15.75s-.38,1.25-.38,2.25.12,1.75.38,2.25.64.75,1.15.75.89-.25,1.15-.75c.25-.5.38-1.25.38-2.25s-.13-1.75-.38-2.25c-.26-.5-.64-.75-1.15-.75Z"/>
      <g class="cls-22">
        <line class="cls-2" x1="78.12" y1="182.46" x2="562.46" y2="182.46"/>
      </g>
      <line x1="78.12" y1="182.46" x2="74.62" y2="182.46"/>
      <line class="cls-11" x1="78.12" y1="182.46" x2="74.62" y2="182.46"/>
      <path d="M47.6,185.43h3.44v.83h-4.63v-.83c.37-.38.88-.9,1.53-1.56.64-.65,1.05-1.07,1.22-1.26.32-.35.54-.65.66-.9.12-.24.19-.49.19-.73,0-.38-.14-.7-.41-.94-.27-.24-.62-.37-1.06-.37-.31,0-.64.06-.98.16-.34.11-.71.27-1.1.49v-1c.4-.16.77-.28,1.11-.36.34-.08.66-.12.95-.12.75,0,1.35.19,1.8.57.45.38.68.88.68,1.51,0,.3-.06.59-.17.85-.11.27-.31.59-.61.95-.08.1-.34.37-.78.82-.44.45-1.05,1.08-1.84,1.89Z"/>
      <path d="M55.22,178.84c.81,0,1.43.33,1.87.97.43.65.65,1.59.65,2.81s-.22,2.17-.65,2.81c-.44.64-1.06.96-1.88.96s-1.44-.32-1.87-.96-.64-1.58-.64-2.81.21-2.16.64-2.81c.43-.64,1.06-.97,1.88-.97ZM55.22,179.62c-.51,0-.89.25-1.15.75-.26.5-.38,1.25-.38,2.25s.12,1.75.38,2.25c.26.5.64.75,1.15.75s.89-.25,1.15-.75c.25-.5.38-1.25.38-2.25s-.13-1.75-.38-2.25c-.26-.5-.64-.75-1.15-.75Z"/>
      <path d="M61.58,178.84c.81,0,1.43.33,1.87.97.43.65.65,1.59.65,2.81s-.22,2.17-.65,2.81c-.44.64-1.06.96-1.88.96s-1.44-.32-1.87-.96-.64-1.58-.64-2.81.21-2.16.64-2.81c.43-.64,1.06-.97,1.88-.97ZM61.58,179.62c-.51,0-.89.25-1.15.75-.26.5-.38,1.25-.38,2.25s.12,1.75.38,2.25c.26.5.64.75,1.15.75s.89-.25,1.15-.75c.25-.5.38-1.25.38-2.25s-.13-1.75-.38-2.25c-.26-.5-.64-.75-1.15-.75Z"/>
      <path d="M67.94,178.84c.81,0,1.43.33,1.87.97.43.65.65,1.59.65,2.81s-.22,2.17-.65,2.81c-.44.64-1.06.96-1.88.96s-1.44-.32-1.87-.96-.64-1.58-.64-2.81.21-2.16.64-2.81c.43-.64,1.06-.97,1.88-.97ZM67.94,179.62c-.51,0-.89.25-1.15.75s-.38,1.25-.38,2.25.12,1.75.38,2.25.64.75,1.15.75.89-.25,1.15-.75c.25-.5.38-1.25.38-2.25s-.13-1.75-.38-2.25c-.26-.5-.64-.75-1.15-.75Z"/>
      <g class="cls-23">
        <line class="cls-2" x1="78.12" y1="146.66" x2="562.46" y2="146.66"/>
      </g>
      <line x1="78.12" y1="146.66" x2="74.62" y2="146.66"/>
      <line class="cls-11" x1="78.12" y1="146.66" x2="74.62" y2="146.66"/>
      <path d="M49.74,146.52c.47.1.84.31,1.1.63.26.32.4.72.4,1.18,0,.72-.25,1.28-.74,1.67-.5.39-1.2.58-2.11.58-.31,0-.63-.03-.95-.09-.32-.05-.66-.14-1-.26v-.95c.27.16.57.28.9.36.32.08.66.12,1.02.12.62,0,1.09-.12,1.41-.36.32-.24.49-.6.49-1.07,0-.42-.15-.76-.45-1-.3-.24-.72-.37-1.26-.37h-.85v-.81h.89c.48,0,.85-.09,1.11-.29.26-.19.39-.47.39-.84s-.14-.66-.4-.86c-.27-.2-.65-.3-1.14-.3-.27,0-.56.03-.87.09s-.65.15-1.02.27v-.88c.37-.1.72-.18,1.05-.23.32-.05.63-.08.93-.08.74,0,1.33.17,1.77.51.44.34.66.8.66,1.38,0,.4-.12.74-.35,1.02s-.56.48-.98.58Z"/>
      <path d="M55.22,143.03c.81,0,1.43.33,1.87.97.43.65.65,1.59.65,2.81s-.22,2.17-.65,2.81c-.44.64-1.06.96-1.88.96s-1.44-.32-1.87-.96-.64-1.58-.64-2.81.21-2.16.64-2.81c.43-.64,1.06-.97,1.88-.97ZM55.22,143.81c-.51,0-.89.25-1.15.75-.26.5-.38,1.25-.38,2.25s.12,1.75.38,2.25c.26.5.64.75,1.15.75s.89-.25,1.15-.75c.25-.5.38-1.25.38-2.25s-.13-1.75-.38-2.25c-.26-.5-.64-.75-1.15-.75Z"/>
      <path d="M61.58,143.03c.81,0,1.43.33,1.87.97.43.65.65,1.59.65,2.81s-.22,2.17-.65,2.81c-.44.64-1.06.96-1.88.96s-1.44-.32-1.87-.96-.64-1.58-.64-2.81.21-2.16.64-2.81c.43-.64,1.06-.97,1.88-.97ZM61.58,143.81c-.51,0-.89.25-1.15.75-.26.5-.38,1.25-.38,2.25s.12,1.75.38,2.25c.26.5.64.75,1.15.75s.89-.25,1.15-.75c.25-.5.38-1.25.38-2.25s-.13-1.75-.38-2.25c-.26-.5-.64-.75-1.15-.75Z"/>
      <path d="M67.94,143.03c.81,0,1.43.33,1.87.97.43.65.65,1.59.65,2.81s-.22,2.17-.65,2.81c-.44.64-1.06.96-1.88.96s-1.44-.32-1.87-.96-.64-1.58-.64-2.81.21-2.16.64-2.81c.43-.64,1.06-.97,1.88-.97ZM67.94,143.81c-.51,0-.89.25-1.15.75s-.38,1.25-.38,2.25.12,1.75.38,2.25.64.75,1.15.75.89-.25,1.15-.75c.25-.5.38-1.25.38-2.25s-.13-1.75-.38-2.25c-.26-.5-.64-.75-1.15-.75Z"/>
      <g class="cls-27">
        <line class="cls-2" x1="78.12" y1="110.85" x2="562.46" y2="110.85"/>
      </g>
      <line x1="78.12" y1="110.85" x2="74.62" y2="110.85"/>
      <line class="cls-11" x1="78.12" y1="110.85" x2="74.62" y2="110.85"/>
      <path d="M49.2,107.36h1.24v4.75h1.04v.82h-1.04v1.72h-.98v-1.72h-3.29v-.95l3.03-4.62ZM49.46,108.22l-2.49,3.89h2.49v-3.89Z"/>
      <path d="M55.22,107.23c.81,0,1.43.33,1.87.97.43.65.65,1.59.65,2.81s-.22,2.17-.65,2.81c-.44.64-1.06.96-1.88.96s-1.44-.32-1.87-.96-.64-1.58-.64-2.81.21-2.16.64-2.81c.43-.64,1.06-.97,1.88-.97ZM55.22,108.01c-.51,0-.89.25-1.15.75-.26.5-.38,1.25-.38,2.25s.12,1.75.38,2.25c.26.5.64.75,1.15.75s.89-.25,1.15-.75c.25-.5.38-1.25.38-2.25s-.13-1.75-.38-2.25c-.26-.5-.64-.75-1.15-.75Z"/>
      <path d="M61.58,107.23c.81,0,1.43.33,1.87.97.43.65.65,1.59.65,2.81s-.22,2.17-.65,2.81c-.44.64-1.06.96-1.88.96s-1.44-.32-1.87-.96-.64-1.58-.64-2.81.21-2.16.64-2.81c.43-.64,1.06-.97,1.88-.97ZM61.58,108.01c-.51,0-.89.25-1.15.75-.26.5-.38,1.25-.38,2.25s.12,1.75.38,2.25c.26.5.64.75,1.15.75s.89-.25,1.15-.75c.25-.5.38-1.25.38-2.25s-.13-1.75-.38-2.25c-.26-.5-.64-.75-1.15-.75Z"/>
      <path d="M67.94,107.23c.81,0,1.43.33,1.87.97.43.65.65,1.59.65,2.81s-.22,2.17-.65,2.81c-.44.64-1.06.96-1.88.96s-1.44-.32-1.87-.96-.64-1.58-.64-2.81.21-2.16.64-2.81c.43-.64,1.06-.97,1.88-.97ZM67.94,108.01c-.51,0-.89.25-1.15.75s-.38,1.25-.38,2.25.12,1.75.38,2.25.64.75,1.15.75.89-.25,1.15-.75c.25-.5.38-1.25.38-2.25s-.13-1.75-.38-2.25c-.26-.5-.64-.75-1.15-.75Z"/>
      <g class="cls-35">
        <line class="cls-2" x1="78.12" y1="75.05" x2="562.46" y2="75.05"/>
      </g>
      <line x1="78.12" y1="75.05" x2="74.62" y2="75.05"/>
      <line class="cls-11" x1="78.12" y1="75.05" x2="74.62" y2="75.05"/>
      <path d="M46.76,71.56h3.87v.83h-2.97v1.79c.14-.05.29-.09.43-.11s.29-.04.43-.04c.81,0,1.45.23,1.93.67.48.45.72,1.05.72,1.81s-.25,1.4-.74,1.83c-.49.43-1.18.64-2.06.64-.31,0-.62-.03-.94-.07-.32-.05-.64-.12-.98-.23v-.99c.29.16.59.28.91.36.31.08.64.11.99.11.56,0,1.01-.14,1.34-.44.32-.3.49-.7.49-1.21s-.17-.9-.49-1.2c-.33-.3-.78-.45-1.34-.45-.26,0-.53.03-.79.09-.26.06-.53.15-.8.27v-3.66Z"/>
      <path d="M55.22,71.43c.81,0,1.43.33,1.87.97.43.65.65,1.59.65,2.81s-.22,2.17-.65,2.81c-.44.64-1.06.96-1.88.96s-1.44-.32-1.87-.96-.64-1.58-.64-2.81.21-2.16.64-2.81c.43-.64,1.06-.97,1.88-.97ZM55.22,72.21c-.51,0-.89.25-1.15.75-.26.5-.38,1.25-.38,2.25s.12,1.75.38,2.25c.26.5.64.75,1.15.75s.89-.25,1.15-.75c.25-.5.38-1.25.38-2.25s-.13-1.75-.38-2.25c-.26-.5-.64-.75-1.15-.75Z"/>
      <path d="M61.58,71.43c.81,0,1.43.33,1.87.97.43.65.65,1.59.65,2.81s-.22,2.17-.65,2.81c-.44.64-1.06.96-1.88.96s-1.44-.32-1.87-.96-.64-1.58-.64-2.81.21-2.16.64-2.81c.43-.64,1.06-.97,1.88-.97ZM61.58,72.21c-.51,0-.89.25-1.15.75-.26.5-.38,1.25-.38,2.25s.12,1.75.38,2.25c.26.5.64.75,1.15.75s.89-.25,1.15-.75c.25-.5.38-1.25.38-2.25s-.13-1.75-.38-2.25c-.26-.5-.64-.75-1.15-.75Z"/>
      <path d="M67.94,71.43c.81,0,1.43.33,1.87.97.43.65.65,1.59.65,2.81s-.22,2.17-.65,2.81c-.44.64-1.06.96-1.88.96s-1.44-.32-1.87-.96-.64-1.58-.64-2.81.21-2.16.64-2.81c.43-.64,1.06-.97,1.88-.97ZM67.94,72.21c-.51,0-.89.25-1.15.75s-.38,1.25-.38,2.25.12,1.75.38,2.25.64.75,1.15.75.89-.25,1.15-.75c.25-.5.38-1.25.38-2.25s-.13-1.75-.38-2.25c-.26-.5-.64-.75-1.15-.75Z"/>
      <g class="cls-41">
        <line class="cls-2" x1="78.12" y1="39.25" x2="562.46" y2="39.25"/>
      </g>
      <line x1="78.12" y1="39.25" x2="74.62" y2="39.25"/>
      <line class="cls-11" x1="78.12" y1="39.25" x2="74.62" y2="39.25"/>
      <path d="M50.94,35.91v.9c-.25-.12-.5-.21-.75-.27-.26-.06-.51-.09-.75-.09-.66,0-1.16.22-1.5.66-.34.44-.54,1.11-.58,1.99.19-.28.43-.5.72-.65.29-.15.61-.23.96-.23.73,0,1.31.23,1.73.67.42.44.64,1.05.64,1.81s-.23,1.35-.67,1.8c-.44.45-1.03.67-1.76.67-.84,0-1.49-.32-1.93-.96-.45-.64-.67-1.58-.67-2.81,0-1.15.27-2.07.82-2.75.54-.68,1.28-1.03,2.2-1.03.24,0,.49.03.75.07.25.05.51.12.79.22ZM48.98,39c-.44,0-.79.16-1.05.46s-.39.72-.39,1.24.13.95.39,1.25.61.45,1.05.45.79-.15,1.05-.45c.26-.3.39-.72.39-1.25s-.13-.94-.39-1.24c-.26-.3-.61-.46-1.05-.46Z"/>
      <path d="M55.22,35.62c.81,0,1.43.33,1.87.97.43.65.65,1.59.65,2.81s-.22,2.17-.65,2.81c-.44.64-1.06.96-1.88.96s-1.44-.32-1.87-.96-.64-1.58-.64-2.81.21-2.16.64-2.81c.43-.64,1.06-.97,1.88-.97ZM55.22,36.4c-.51,0-.89.25-1.15.75-.26.5-.38,1.25-.38,2.25s.12,1.75.38,2.25c.26.5.64.75,1.15.75s.89-.25,1.15-.75c.25-.5.38-1.25.38-2.25s-.13-1.75-.38-2.25c-.26-.5-.64-.75-1.15-.75Z"/>
      <path d="M61.58,35.62c.81,0,1.43.33,1.87.97.43.65.65,1.59.65,2.81s-.22,2.17-.65,2.81c-.44.64-1.06.96-1.88.96s-1.44-.32-1.87-.96-.64-1.58-.64-2.81.21-2.16.64-2.81c.43-.64,1.06-.97,1.88-.97ZM61.58,36.4c-.51,0-.89.25-1.15.75-.26.5-.38,1.25-.38,2.25s.12,1.75.38,2.25c.26.5.64.75,1.15.75s.89-.25,1.15-.75c.25-.5.38-1.25.38-2.25s-.13-1.75-.38-2.25c-.26-.5-.64-.75-1.15-.75Z"/>
      <path d="M67.94,35.62c.81,0,1.43.33,1.87.97.43.65.65,1.59.65,2.81s-.22,2.17-.65,2.81c-.44.64-1.06.96-1.88.96s-1.44-.32-1.87-.96-.64-1.58-.64-2.81.21-2.16.64-2.81c.43-.64,1.06-.97,1.88-.97ZM67.94,36.4c-.51,0-.89.25-1.15.75s-.38,1.25-.38,2.25.12,1.75.38,2.25.64.75,1.15.75.89-.25,1.15-.75c.25-.5.38-1.25.38-2.25s-.13-1.75-.38-2.25c-.26-.5-.64-.75-1.15-.75Z"/>
      <polygon points="32.31 196.98 32.31 192.37 33.14 192.37 33.14 195.99 35.3 195.99 35.3 192.52 36.13 192.52 36.13 195.99 38.77 195.99 38.77 192.28 39.6 192.28 39.6 196.98 32.31 196.98"/>
      <polygon points="34.13 186.15 36.79 188.13 39.6 186.05 39.6 187.11 37.45 188.7 39.6 190.29 39.6 191.35 36.74 189.23 34.13 191.17 34.13 190.11 36.08 188.66 34.13 187.21 34.13 186.15"/>
      <path d="M36.38,181.3c-.49.01-.88.15-1.18.41-.29.27-.44.63-.44,1.07,0,.5.15.9.43,1.2s.68.48,1.19.52v-3.2ZM36.64,180.4h.44v4.13c.62-.04,1.1-.22,1.42-.56.32-.33.48-.79.48-1.39,0-.34-.04-.68-.12-1-.08-.32-.21-.65-.39-.97h.85c.14.32.25.65.31.99.06.34.1.69.1,1.03,0,.88-.25,1.57-.75,2.08-.5.51-1.19.76-2.06.76s-1.6-.24-2.13-.72c-.52-.48-.79-1.14-.79-1.96,0-.74.24-1.32.71-1.75.48-.42,1.12-.64,1.93-.64Z"/>
      <path d="M34.34,174.99h.84c-.14.26-.24.51-.31.77s-.11.51-.11.77c0,.58.19,1.04.56,1.36.37.32.89.48,1.55.48s1.19-.16,1.56-.48c.37-.32.55-.78.55-1.36,0-.26-.03-.51-.1-.77s-.18-.51-.32-.77h.83c.12.26.21.52.26.78.05.27.08.56.08.86,0,.82-.25,1.48-.77,1.96-.51.49-1.21.73-2.09.73s-1.59-.24-2.1-.73c-.51-.49-.77-1.16-.77-2.02,0-.28.03-.55.09-.81.06-.26.14-.52.25-.77Z"/>
      <path d="M34,171.26h0ZM37.44,173.52h-3.31v-.9h3.28c.52,0,.9-.1,1.16-.3.26-.2.39-.5.39-.91,0-.48-.15-.87-.46-1.15-.31-.28-.73-.42-1.27-.42h-3.1v-.9h5.47v.9h-.84c.34.22.58.48.74.76.15.29.23.62.23,1,0,.63-.19,1.11-.58,1.43-.38.33-.95.49-1.71.49Z"/>
      <path d="M32.58,166.2h1.55v-1.85h.7v1.85h2.97c.45,0,.74-.06.86-.18.13-.12.19-.37.19-.75v-.92h.75v.92c0,.7-.13,1.18-.39,1.44-.26.26-.73.39-1.41.39h-2.97v.66h-.7v-.66h-1.55v-.9Z"/>
      <path d="M32,163.17v-.9h1.14v.9h-1.14ZM34.13,163.17v-.9h5.47v.9h-5.47Z"/>
      <path d="M34,158.27c0-.78.26-1.39.76-1.84.51-.44,1.21-.67,2.11-.67s1.6.23,2.1.67c.51.45.76,1.06.76,1.84s-.25,1.41-.76,1.85c-.5.44-1.2.66-2.1.66s-1.6-.22-2.11-.66c-.5-.44-.76-1.06-.76-1.85ZM34.76,158.27c0,.48.19.86.57,1.14s.89.42,1.54.42,1.17-.13,1.55-.41.56-.66.56-1.15-.18-.86-.56-1.14-.89-.42-1.55-.42-1.16.14-1.54.42-.57.66-.57,1.14Z"/>
      <path d="M36.3,149.72h3.3v.9h-3.27c-.52,0-.9.11-1.16.31s-.39.5-.39.9c0,.49.16.87.47,1.15.31.28.73.42,1.26.42h3.09v.9h-5.47v-.9h.85c-.32-.21-.57-.46-.73-.76-.16-.29-.25-.63-.25-1.01,0-.62.2-1.1.59-1.42.39-.32.96-.49,1.71-.49Z"/>
      <polygon points="32.31 145.71 32.31 139.55 33.14 139.55 33.14 142.14 39.6 142.14 39.6 143.13 33.14 143.13 33.14 145.71 32.31 145.71"/>
      <path d="M32,138.93v-.9h1.14v.9h-1.14ZM34.13,138.93v-.9h5.47v.9h-5.47Z"/>
      <path d="M35.18,131.89c-.4-.22-.69-.49-.89-.8-.19-.31-.29-.68-.29-1.11,0-.56.2-1,.6-1.31.4-.31.97-.47,1.7-.47h3.3v.9h-3.27c-.52,0-.91.1-1.17.28-.25.19-.38.47-.38.85,0,.47.16.84.47,1.11.31.27.73.4,1.26.4h3.09v.9h-3.27c-.52,0-.91.1-1.17.28-.25.19-.38.48-.38.86,0,.46.16.83.47,1.1.31.27.73.4,1.26.4h3.09v.9h-5.47v-.9h.85c-.33-.2-.58-.45-.74-.74-.16-.28-.24-.62-.24-1.02s.1-.73.3-1.01c.2-.28.5-.48.88-.62Z"/>
      <path d="M36.38,122.63c-.49,0-.88.15-1.18.41-.29.27-.44.63-.44,1.07,0,.5.15.9.43,1.2.28.3.68.48,1.19.52v-3.2ZM36.64,121.73h.44v4.13c.62-.04,1.1-.22,1.42-.56.32-.33.48-.79.48-1.39,0-.34-.04-.68-.12-1s-.21-.65-.39-.97h.85c.14.32.25.65.31.99.06.34.1.69.1,1.03,0,.88-.25,1.57-.75,2.08-.5.51-1.19.76-2.06.76s-1.6-.24-2.13-.72c-.52-.48-.79-1.14-.79-1.96,0-.74.24-1.32.71-1.75.48-.42,1.12-.64,1.93-.64Z"/>
      <path d="M32.01,114.92c.76.44,1.5.76,2.23.97.73.22,1.47.32,2.22.32s1.5-.1,2.23-.32c.74-.21,1.47-.53,2.22-.97v.78c-.77.49-1.51.86-2.25,1.1-.74.24-1.47.36-2.2.36s-1.45-.12-2.19-.36c-.74-.24-1.49-.6-2.26-1.1v-.78Z"/>
      <path d="M35.18,108.92c-.4-.22-.69-.49-.89-.8-.19-.31-.29-.68-.29-1.11,0-.56.2-1,.6-1.31.4-.31.97-.47,1.7-.47h3.3v.9h-3.27c-.52,0-.91.1-1.17.28-.25.19-.38.47-.38.85,0,.47.16.84.47,1.11.31.27.73.4,1.26.4h3.09v.9h-3.27c-.52,0-.91.1-1.17.28-.25.19-.38.48-.38.86,0,.46.16.83.47,1.1.31.27.73.4,1.26.4h3.09v.9h-5.47v-.9h.85c-.33-.2-.58-.45-.74-.74-.16-.28-.24-.62-.24-1.02s.1-.73.3-1.01c.2-.28.5-.48.88-.62Z"/>
      <path d="M34.29,99.95h.85c-.12.26-.22.52-.29.79-.06.28-.1.56-.1.85,0,.45.07.79.21,1.01s.34.33.61.33c.21,0,.37-.08.49-.24s.24-.48.34-.96l.07-.31c.14-.64.34-1.09.58-1.36.25-.26.6-.4,1.04-.4.51,0,.91.2,1.2.6.3.4.44.96.44,1.66,0,.3-.03.6-.08.92-.05.32-.13.65-.25,1h-.93c.18-.33.31-.66.39-.98.09-.32.13-.64.13-.96,0-.42-.07-.75-.21-.98-.14-.22-.35-.34-.62-.34-.24,0-.43.09-.56.25s-.26.52-.38,1.08l-.07.31c-.12.56-.3.97-.54,1.21-.24.25-.57.37-1,.37-.51,0-.91-.18-1.19-.54s-.42-.88-.42-1.56c0-.33.03-.64.08-.94.05-.29.12-.56.21-.81Z"/>
      <path d="M32.01,98.37v-.78c.77-.48,1.52-.85,2.26-1.09.74-.24,1.47-.37,2.19-.37s1.46.13,2.2.37c.74.24,1.48.61,2.25,1.09v.78c-.75-.43-1.48-.75-2.22-.97-.73-.21-1.47-.32-2.23-.32s-1.49.11-2.22.32c-.73.22-1.47.54-2.23.97Z"/>
      <g class="cls-37">
        <polyline class="cls-3" points="100.14 248.09 246.91 243.04 393.68 236.84 540.45 232.01"/>
        <g class="cls-17">
          <path class="cls-42" d="M100.14,251.09c.8,0,1.56-.32,2.12-.88.56-.56.88-1.33.88-2.12s-.32-1.56-.88-2.12c-.56-.56-1.33-.88-2.12-.88s-1.56.32-2.12.88c-.56.56-.88,1.33-.88,2.12s.32,1.56.88,2.12c.56.56,1.33.88,2.12.88Z"/>
          <path class="cls-5" d="M100.14,251.09c.8,0,1.56-.32,2.12-.88.56-.56.88-1.33.88-2.12s-.32-1.56-.88-2.12c-.56-.56-1.33-.88-2.12-.88s-1.56.32-2.12.88c-.56.56-.88,1.33-.88,2.12s.32,1.56.88,2.12c.56.56,1.33.88,2.12.88Z"/>
        </g>
        <g class="cls-39">
          <path class="cls-42" d="M246.91,246.04c.8,0,1.56-.32,2.12-.88.56-.56.88-1.33.88-2.12s-.32-1.56-.88-2.12c-.56-.56-1.33-.88-2.12-.88s-1.56.32-2.12.88c-.56.56-.88,1.33-.88,2.12s.32,1.56.88,2.12c.56.56,1.33.88,2.12.88Z"/>
          <path class="cls-5" d="M246.91,246.04c.8,0,1.56-.32,2.12-.88.56-.56.88-1.33.88-2.12s-.32-1.56-.88-2.12c-.56-.56-1.33-.88-2.12-.88s-1.56.32-2.12.88c-.56.56-.88,1.33-.88,2.12s.32,1.56.88,2.12c.56.56,1.33.88,2.12.88Z"/>
        </g>
        <g class="cls-16">
          <path class="cls-42" d="M393.68,239.84c.8,0,1.56-.32,2.12-.88.56-.56.88-1.33.88-2.12s-.32-1.56-.88-2.12c-.56-.56-1.33-.88-2.12-.88s-1.56.32-2.12.88c-.56.56-.88,1.33-.88,2.12s.32,1.56.88,2.12c.56.56,1.33.88,2.12.88Z"/>
          <path class="cls-5" d="M393.68,239.84c.8,0,1.56-.32,2.12-.88.56-.56.88-1.33.88-2.12s-.32-1.56-.88-2.12c-.56-.56-1.33-.88-2.12-.88s-1.56.32-2.12.88c-.56.56-.88,1.33-.88,2.12s.32,1.56.88,2.12c.56.56,1.33.88,2.12.88Z"/>
        </g>
        <g class="cls-18">
          <path class="cls-42" d="M540.45,235.01c.8,0,1.56-.32,2.12-.88.56-.56.88-1.33.88-2.12s-.32-1.56-.88-2.12c-.56-.56-1.33-.88-2.12-.88s-1.56.32-2.12.88c-.56.56-.88,1.33-.88,2.12s.32,1.56.88,2.12c.56.56,1.33.88,2.12.88Z"/>
          <path class="cls-5" d="M540.45,235.01c.8,0,1.56-.32,2.12-.88.56-.56.88-1.33.88-2.12s-.32-1.56-.88-2.12c-.56-.56-1.33-.88-2.12-.88s-1.56.32-2.12.88c-.56.56-.88,1.33-.88,2.12s.32,1.56.88,2.12c.56.56,1.33.88,2.12.88Z"/>
        </g>
      </g>
      <g class="cls-38">
        <polyline class="cls-4" points="100.14 230.61 246.91 208.85 393.68 188.08 540.45 165.13"/>
        <g class="cls-31">
          <rect class="cls-45" x="97.14" y="227.61" width="6" height="6"/>
          <rect class="cls-9" x="97.14" y="227.61" width="6" height="6"/>
        </g>
        <g class="cls-13">
          <rect class="cls-45" x="243.91" y="205.85" width="6" height="6"/>
          <rect class="cls-9" x="243.91" y="205.85" width="6" height="6"/>
        </g>
        <g class="cls-20">
          <rect class="cls-45" x="390.68" y="185.08" width="6" height="6"/>
          <rect class="cls-9" x="390.68" y="185.08" width="6" height="6"/>
        </g>
        <g class="cls-21">
          <rect class="cls-45" x="537.45" y="162.13" width="6" height="6"/>
          <rect class="cls-9" x="537.45" y="162.13" width="6" height="6"/>
        </g>
      </g>
      <g class="cls-43">
        <polyline class="cls-7" points="100.14 200.93 246.91 147.01 393.68 99.18 540.45 44.97"/>
        <g class="cls-25">
          <polygon class="cls-36" points="100.14 197.93 97.14 203.93 103.14 203.93 100.14 197.93"/>
          <polygon class="cls-8" points="100.14 197.93 97.14 203.93 103.14 203.93 100.14 197.93"/>
        </g>
        <g class="cls-34">
          <polygon class="cls-36" points="246.91 144.01 243.91 150.01 249.91 150.01 246.91 144.01"/>
          <polygon class="cls-8" points="246.91 144.01 243.91 150.01 249.91 150.01 246.91 144.01"/>
        </g>
        <g class="cls-26">
          <polygon class="cls-36" points="393.68 96.18 390.68 102.18 396.68 102.18 393.68 96.18"/>
          <polygon class="cls-8" points="393.68 96.18 390.68 102.18 396.68 102.18 393.68 96.18"/>
        </g>
        <g class="cls-28">
          <polygon class="cls-36" points="540.45 41.97 537.45 47.97 543.45 47.97 540.45 41.97"/>
          <polygon class="cls-8" points="540.45 41.97 537.45 47.97 543.45 47.97 540.45 41.97"/>
        </g>
      </g>
      <line class="cls-10" x1="78.12" y1="258.24" x2="78.12" y2="34.82"/>
      <line class="cls-10" x1="562.46" y1="258.24" x2="562.46" y2="34.82"/>
      <line class="cls-10" x1="78.12" y1="258.24" x2="562.46" y2="258.24"/>
      <line class="cls-10" x1="78.12" y1="34.82" x2="562.46" y2="34.82"/>
      <polygon points="201.43 20.07 206.96 20.07 206.96 21.07 202.62 21.07 202.62 23.66 206.78 23.66 206.78 24.66 202.62 24.66 202.62 27.82 207.07 27.82 207.07 28.82 201.43 28.82 201.43 20.07"/>
      <polygon points="214.42 22.26 212.05 25.45 214.54 28.82 213.27 28.82 211.36 26.24 209.46 28.82 208.18 28.82 210.73 25.39 208.4 22.26 209.67 22.26 211.41 24.6 213.15 22.26 214.42 22.26"/>
      <path d="M220.25,24.96c-.01-.59-.18-1.06-.49-1.42-.32-.35-.76-.53-1.28-.53-.6,0-1.08.18-1.44.52s-.58.82-.62,1.43h3.84ZM221.33,25.27v.53h-4.96c.05.74.26,1.32.67,1.7.4.38.95.58,1.67.58.41,0,.82-.05,1.2-.14s.78-.25,1.16-.47v1.02c-.38.17-.78.3-1.19.37-.41.07-.83.12-1.24.12-1.06,0-1.88-.3-2.5-.9-.61-.6-.91-1.43-.91-2.47s.29-1.92.86-2.56c.58-.62,1.37-.95,2.35-.95.89,0,1.58.29,2.1.85.5.58.77,1.34.77,2.32Z"/>
      <path d="M227.82,22.51v1.01c-.31-.17-.61-.29-.92-.37-.31-.08-.61-.13-.92-.13-.7,0-1.25.23-1.63.67-.38.44-.58,1.07-.58,1.86s.19,1.43.58,1.87c.38.44.94.66,1.63.66.31,0,.61-.04.92-.12.31-.08.61-.22.92-.38v1c-.31.14-.62.25-.94.31-.32.06-.67.1-1.03.1-.98,0-1.78-.3-2.35-.92-.59-.61-.88-1.45-.88-2.51s.29-1.91.88-2.52,1.39-.92,2.42-.92c.34,0,.66.04.97.11.31.07.62.17.92.3Z"/>
      <path d="M232.29,22.1h0ZM229.58,26.23v-3.97h1.08v3.94c0,.62.12,1.08.36,1.39.24.31.6.47,1.09.47.58,0,1.04-.18,1.38-.55.34-.37.5-.88.5-1.52v-3.72h1.08v6.56h-1.08v-1.01c-.26.41-.58.7-.91.89-.35.18-.74.28-1.2.28-.76,0-1.33-.23-1.72-.7-.4-.46-.59-1.14-.59-2.05Z"/>
      <path d="M238.37,20.4v1.86h2.22v.84h-2.22v3.56c0,.54.07.89.22,1.03.14.16.44.23.9.23h1.1v.9h-1.1c-.84,0-1.42-.16-1.73-.47-.31-.31-.47-.88-.47-1.69v-3.56h-.79v-.84h.79v-1.86h1.08Z"/>
      <path d="M242,19.7h1.08v1.37h-1.08v-1.37ZM242,22.26h1.08v6.56h-1.08v-6.56Z"/>
      <path d="M247.88,22.1c.94,0,1.67.31,2.21.91.53.61.8,1.45.8,2.53s-.28,1.92-.8,2.52c-.54.61-1.27.91-2.21.91s-1.69-.3-2.22-.91c-.53-.6-.79-1.44-.79-2.52s.26-1.92.79-2.53c.53-.6,1.27-.91,2.22-.91ZM247.88,23.01c-.58,0-1.03.23-1.37.68s-.5,1.07-.5,1.85.16,1.4.49,1.86c.34.46.79.67,1.38.67s1.03-.22,1.37-.67c.34-.46.5-1.07.5-1.86s-.17-1.39-.5-1.85c-.34-.46-.79-.68-1.37-.68Z"/>
      <path d="M258.14,24.86v3.96h-1.08v-3.92c0-.62-.13-1.08-.37-1.39-.24-.31-.6-.47-1.08-.47-.59,0-1.04.19-1.38.56s-.5.88-.5,1.51v3.71h-1.08v-6.56h1.08v1.02c.25-.38.55-.68.91-.88.35-.19.76-.3,1.21-.3.74,0,1.32.24,1.7.71.38.47.59,1.15.59,2.05Z"/>
      <polygon points="262.95 20.07 270.35 20.07 270.35 21.07 267.24 21.07 267.24 28.82 266.05 28.82 266.05 21.07 262.95 21.07 262.95 20.07"/>
      <path d="M271.08,19.7h1.08v1.37h-1.08v-1.37ZM271.08,22.26h1.08v6.56h-1.08v-6.56Z"/>
      <path d="M279.53,23.52c.26-.48.59-.83.96-1.07.37-.23.82-.35,1.33-.35.67,0,1.2.24,1.57.72s.56,1.16.56,2.04v3.96h-1.08v-3.92c0-.62-.12-1.09-.34-1.4-.23-.3-.56-.46-1.02-.46-.56,0-1.01.19-1.33.56s-.48.88-.48,1.51v3.71h-1.08v-3.92c0-.62-.12-1.09-.34-1.4-.23-.3-.58-.46-1.03-.46-.55,0-1,.19-1.32.56s-.48.88-.48,1.51v3.71h-1.08v-6.56h1.08v1.02c.24-.4.54-.7.89-.89.34-.19.74-.29,1.22-.29s.88.12,1.21.36c.34.24.58.6.74,1.06Z"/>
      <path d="M290.64,24.96c-.01-.59-.18-1.06-.49-1.42-.32-.35-.76-.53-1.28-.53-.6,0-1.08.18-1.44.52-.36.34-.58.82-.62,1.43h3.84ZM291.72,25.27v.53h-4.96c.05.74.26,1.32.67,1.7.4.38.95.58,1.67.58.41,0,.82-.05,1.2-.14s.78-.25,1.16-.47v1.02c-.38.17-.78.3-1.19.37-.41.07-.83.12-1.24.12-1.06,0-1.88-.3-2.5-.9-.61-.6-.91-1.43-.91-2.47s.29-1.92.86-2.56c.58-.62,1.37-.95,2.35-.95.89,0,1.58.29,2.1.85.5.58.77,1.34.77,2.32Z"/>
      <polygon points="296.53 22.26 297.67 22.26 299.72 27.76 301.77 22.26 302.91 22.26 300.45 28.82 298.99 28.82 296.53 22.26"/>
      <path d="M308.59,22.45v1.02c-.31-.14-.62-.26-.95-.35-.34-.07-.67-.12-1.02-.12-.54,0-.95.08-1.21.25-.26.17-.4.41-.4.73,0,.25.1.44.29.59.19.14.58.29,1.15.41l.37.08c.77.17,1.31.41,1.63.7.31.3.48.72.48,1.25,0,.61-.24,1.09-.72,1.44-.48.36-1.15.53-1.99.53-.36,0-.72-.04-1.1-.1s-.78-.16-1.2-.3v-1.12c.4.22.79.37,1.18.47.38.11.77.16,1.15.16.5,0,.9-.08,1.18-.25.26-.17.41-.42.41-.74,0-.29-.11-.52-.3-.67-.19-.16-.62-.31-1.3-.46l-.37-.08c-.67-.14-1.16-.36-1.45-.65-.3-.29-.44-.68-.44-1.2,0-.61.22-1.09.65-1.43s1.06-.5,1.87-.5c.4,0,.77.04,1.13.1.35.06.67.14.97.25Z"/>
      <rect x="310.81" y="27.33" width="1.24" height="1.49"/>
      <polygon points="318.33 20.07 319.93 20.07 323.81 27.39 323.81 20.07 324.96 20.07 324.96 28.82 323.36 28.82 319.49 21.5 319.49 28.82 318.33 28.82 318.33 20.07"/>
      <path d="M329.87,22.1h0ZM327.15,26.23v-3.97h1.08v3.94c0,.62.12,1.08.36,1.39.24.31.6.47,1.09.47.58,0,1.04-.18,1.38-.55.34-.37.5-.88.5-1.52v-3.72h1.08v6.56h-1.08v-1.01c-.26.41-.58.7-.91.89-.35.18-.74.28-1.2.28-.76,0-1.33-.23-1.72-.7-.4-.46-.59-1.14-.59-2.05Z"/>
      <path d="M339.98,23.52c.26-.48.59-.83.96-1.07.37-.23.82-.35,1.33-.35.67,0,1.2.24,1.57.72s.56,1.16.56,2.04v3.96h-1.08v-3.92c0-.62-.12-1.09-.34-1.4-.23-.3-.56-.46-1.02-.46-.56,0-1.01.19-1.33.56s-.48.88-.48,1.51v3.71h-1.08v-3.92c0-.62-.12-1.09-.34-1.4-.23-.3-.58-.46-1.03-.46-.55,0-1,.19-1.32.56s-.48.88-.48,1.51v3.71h-1.08v-6.56h1.08v1.02c.24-.4.54-.7.89-.89.34-.19.74-.29,1.22-.29s.88.12,1.21.36c.34.24.58.6.74,1.06Z"/>
      <path d="M347.6,23.25c.22-.38.5-.67.85-.86.35-.19.77-.29,1.25-.29.79,0,1.44.32,1.94.95.49.64.74,1.46.74,2.5s-.25,1.87-.74,2.5c-.5.62-1.15.94-1.94.94-.48,0-.9-.1-1.25-.28-.35-.18-.64-.47-.85-.86v.98h-1.08v-9.12h1.08v3.55ZM351.27,25.54c0-.79-.17-1.4-.49-1.86-.34-.46-.78-.68-1.34-.68s-1.02.23-1.34.68c-.34.46-.49,1.07-.49,1.86s.16,1.42.49,1.87c.32.46.77.67,1.34.67s1.01-.22,1.34-.67c.32-.46.49-1.08.49-1.87Z"/>
      <path d="M358.71,24.96c-.01-.59-.18-1.06-.49-1.42-.32-.35-.76-.53-1.28-.53-.6,0-1.08.18-1.44.52-.36.34-.58.82-.62,1.43h3.84ZM359.79,25.27v.53h-4.96c.05.74.26,1.32.67,1.7.4.38.95.58,1.67.58.41,0,.82-.05,1.2-.14s.78-.25,1.16-.47v1.02c-.38.17-.78.3-1.19.37-.41.07-.83.12-1.24.12-1.06,0-1.88-.3-2.5-.9-.61-.6-.91-1.43-.91-2.47s.29-1.92.86-2.56c.58-.62,1.37-.95,2.35-.95.89,0,1.58.29,2.1.85.5.58.77,1.34.77,2.32Z"/>
      <path d="M365.36,23.26c-.12-.07-.25-.12-.4-.16-.14-.02-.3-.05-.47-.05-.61,0-1.08.2-1.4.6-.34.4-.49.96-.49,1.7v3.46h-1.08v-6.56h1.08v1.02c.22-.4.52-.7.88-.89.36-.19.8-.29,1.33-.29.07,0,.16.01.25.01.08.01.18.02.3.05v1.1Z"/>
      <path d="M372.85,22.1c.94,0,1.67.31,2.21.91.53.61.8,1.45.8,2.53s-.28,1.92-.8,2.52c-.54.61-1.27.91-2.21.91s-1.69-.3-2.22-.91c-.53-.6-.79-1.44-.79-2.52s.26-1.92.79-2.53c.53-.6,1.27-.91,2.22-.91ZM372.85,23.01c-.58,0-1.03.23-1.37.68-.34.46-.5,1.07-.5,1.85s.16,1.4.49,1.86c.34.46.79.67,1.38.67s1.03-.22,1.37-.67c.34-.46.5-1.07.5-1.86s-.17-1.39-.5-1.85-.79-.68-1.37-.68Z"/>
      <path d="M380.97,19.7v.9h-1.03c-.38,0-.66.08-.8.24-.16.16-.23.43-.23.84v.58h1.78v.84h-1.78v5.72h-1.08v-5.72h-1.03v-.84h1.03v-.46c0-.72.17-1.26.5-1.6s.88-.5,1.62-.5h1.02Z"/>
      <polygon points="384.96 20.07 386.16 20.07 387.99 27.46 389.83 20.07 391.16 20.07 393 27.46 394.83 20.07 396.03 20.07 393.84 28.82 392.35 28.82 390.5 21.22 388.64 28.82 387.15 28.82 384.96 20.07"/>
      <path d="M401.93,25.08v3.74h-1.08v-1c-.25.41-.56.7-.92.88-.36.18-.82.28-1.34.28-.67,0-1.21-.18-1.61-.55-.4-.37-.59-.88-.59-1.51,0-.73.24-1.28.74-1.67.49-.37,1.22-.56,2.21-.56h1.51v-.11c0-.49-.17-.88-.49-1.15-.32-.26-.78-.41-1.37-.41-.38,0-.74.05-1.1.14-.36.1-.7.23-1.02.4v-1c.38-.14.77-.26,1.14-.34.37-.07.73-.12,1.09-.12.95,0,1.66.25,2.12.74.47.49.71,1.24.71,2.23ZM399.78,25.52c-.88,0-1.48.11-1.81.3-.34.2-.5.54-.5,1.02,0,.38.12.7.37.91.25.23.6.34,1.03.34.6,0,1.08-.2,1.44-.64.36-.42.54-.98.54-1.69v-.24h-1.07Z"/>
      <rect x="404.15" y="19.7" width="1.08" height="9.12"/>
      <polygon points="407.45 19.7 408.53 19.7 408.53 25.09 411.74 22.26 413.12 22.26 409.64 25.33 413.27 28.82 411.86 28.82 408.53 25.62 408.53 28.82 407.45 28.82 407.45 19.7"/>
      <path d="M418.62,22.45v1.02c-.31-.14-.62-.26-.95-.35-.34-.07-.67-.12-1.02-.12-.54,0-.95.08-1.21.25-.26.17-.4.41-.4.73,0,.25.1.44.29.59.19.14.58.29,1.15.41l.37.08c.77.17,1.31.41,1.63.7.31.3.48.72.48,1.25,0,.61-.24,1.09-.72,1.44-.48.36-1.15.53-1.99.53-.36,0-.72-.04-1.1-.1s-.78-.16-1.2-.3v-1.12c.4.22.79.37,1.18.47.38.11.77.16,1.15.16.5,0,.9-.08,1.18-.25.26-.17.41-.42.41-.74,0-.29-.11-.52-.3-.67-.19-.16-.62-.31-1.3-.46l-.37-.08c-.67-.14-1.16-.36-1.45-.65-.3-.29-.44-.68-.44-1.2,0-.61.22-1.09.65-1.43s1.06-.5,1.87-.5c.4,0,.77.04,1.13.1.35.06.67.14.97.25Z"/>
      <path d="M427.09,19.71c-.53.91-.91,1.8-1.16,2.68-.26.88-.38,1.76-.38,2.66s.12,1.8.38,2.68c.25.89.64,1.76,1.16,2.66h-.94c-.59-.92-1.03-1.81-1.32-2.7-.29-.89-.43-1.76-.43-2.64s.14-1.74.43-2.63c.29-.89.72-1.79,1.32-2.71h.94Z"/>
      <path d="M434.64,24.86v3.96h-1.08v-3.92c0-.62-.13-1.08-.37-1.39-.24-.31-.6-.47-1.08-.47-.59,0-1.04.19-1.38.56s-.5.88-.5,1.51v3.71h-1.08v-6.56h1.08v1.02c.25-.38.55-.68.91-.88.35-.19.76-.3,1.21-.3.74,0,1.32.24,1.7.71.38.47.59,1.15.59,2.05Z"/>
      <path d="M436.62,19.71h.94c.58.92,1.02,1.82,1.31,2.71.29.89.44,1.76.44,2.63s-.16,1.75-.44,2.64c-.29.89-.73,1.78-1.31,2.7h-.94c.52-.9.9-1.78,1.16-2.66.25-.88.38-1.76.38-2.68s-.13-1.79-.38-2.66c-.26-.88-.65-1.76-1.16-2.68Z"/>
      <g>
        <rect class="cls-12" x="83.12" y="39.82" width="103.52" height="47.02" rx="2" ry="2"/>
        <rect class="cls-1" x="83.12" y="39.82" width="103.52" height="47.02" rx="2" ry="2"/>
      </g>
      <polyline class="cls-3" points="87.12 47.91 97.12 47.91 107.12 47.91"/>
      <path class="cls-42" d="M97.12,50.91c.8,0,1.56-.32,2.12-.88.56-.56.88-1.33.88-2.12s-.32-1.56-.88-2.12c-.56-.56-1.33-.88-2.12-.88s-1.56.32-2.12.88c-.56.56-.88,1.33-.88,2.12s.32,1.56.88,2.12c.56.56,1.33.88,2.12.88Z"/>
      <path class="cls-5" d="M97.12,50.91c.8,0,1.56-.32,2.12-.88.56-.56.88-1.33.88-2.12s-.32-1.56-.88-2.12c-.56-.56-1.33-.88-2.12-.88s-1.56.32-2.12.88c-.56.56-.88,1.33-.88,2.12s.32,1.56.88,2.12c.56.56,1.33.88,2.12.88Z"/>
      <polygon points="117.98 51.41 115.2 44.12 116.23 44.12 118.54 50.26 120.85 44.12 121.88 44.12 119.1 51.41 117.98 51.41"/>
      <path d="M123.02,48.86h6.26v.83h-6.26v-.83ZM123.02,46.87h6.26v.82h-6.26v-.82Z"/>
      <path d="M133.4,48.17c.44,0,.79-.15,1.05-.45s.39-.72.39-1.25-.13-.94-.39-1.24c-.26-.3-.61-.46-1.05-.46s-.79.16-1.05.46c-.26.3-.39.72-.39,1.24s.13.95.39,1.25c.26.3.61.45,1.05.45ZM131.44,51.26v-.9c.24.12.49.21.75.27.25.06.5.09.75.09.64,0,1.14-.21,1.48-.65s.54-1.1.6-2c-.2.28-.44.5-.72.65-.29.15-.61.22-.96.22-.74,0-1.32-.22-1.74-.66s-.63-1.04-.63-1.81.22-1.34.66-1.8c.44-.45,1.03-.68,1.77-.68.84,0,1.49.33,1.93.97.44.65.67,1.59.67,2.81s-.28,2.07-.82,2.75c-.55.68-1.28,1.02-2.2,1.02-.25,0-.5-.03-.75-.07-.26-.04-.52-.11-.79-.21Z"/>
      <path d="M138.62,50.58h3.44v.83h-4.63v-.83c.37-.38.88-.9,1.53-1.56.64-.65,1.05-1.07,1.22-1.26.32-.35.54-.65.66-.9.12-.24.19-.49.19-.73,0-.38-.14-.7-.41-.94s-.62-.37-1.06-.37c-.31,0-.64.06-.98.16-.34.11-.71.27-1.1.49v-1c.4-.16.77-.28,1.11-.36s.66-.12.95-.12c.75,0,1.35.19,1.8.57.45.38.68.88.68,1.51,0,.3-.06.59-.17.85-.11.27-.31.59-.61.95-.08.1-.34.37-.78.82-.44.45-1.05,1.08-1.84,1.89Z"/>
      <polygon points="144.23 50.17 145.26 50.17 145.26 51.01 144.46 52.56 143.83 52.56 144.23 51.01 144.23 50.17"/>
      <polygon points="150.4 44.12 154.59 44.12 154.59 44.95 151.39 44.95 151.39 47.1 154.28 47.1 154.28 47.93 151.39 47.93 151.39 51.41 150.4 51.41 150.4 44.12"/>
      <path d="M156.23,48.86h6.26v.83h-6.26v-.83ZM156.23,46.87h6.26v.82h-6.26v-.82Z"/>
      <path d="M168.81,44.28v.9c-.25-.12-.5-.21-.75-.27-.26-.06-.51-.09-.75-.09-.66,0-1.16.22-1.5.66-.34.44-.54,1.11-.58,1.99.19-.28.43-.5.72-.65.29-.15.61-.23.96-.23.73,0,1.31.23,1.73.67.42.44.64,1.05.64,1.81s-.23,1.35-.67,1.8c-.44.45-1.03.67-1.76.67-.84,0-1.49-.32-1.93-.96-.45-.64-.67-1.58-.67-2.81,0-1.15.27-2.07.82-2.75.54-.68,1.28-1.03,2.2-1.03.24,0,.49.03.75.07.25.05.51.12.79.22ZM166.85,47.37c-.44,0-.79.16-1.05.46s-.39.72-.39,1.24.13.95.39,1.25.61.45,1.05.45.79-.15,1.05-.45c.26-.3.39-.72.39-1.25s-.13-.94-.39-1.24c-.26-.3-.61-.46-1.05-.46Z"/>
      <polyline class="cls-4" points="87.12 62.58 97.12 62.58 107.12 62.58"/>
      <rect class="cls-45" x="94.12" y="59.58" width="6" height="6"/>
      <rect class="cls-9" x="94.12" y="59.58" width="6" height="6"/>
      <polygon points="117.98 66.08 115.2 58.79 116.23 58.79 118.54 64.93 120.85 58.79 121.88 58.79 119.1 66.08 117.98 66.08"/>
      <path d="M123.02,63.53h6.26v.83h-6.26v-.83ZM123.02,61.54h6.26v.82h-6.26v-.82Z"/>
      <path d="M134.4,62.15c.47.1.84.31,1.1.63.26.32.4.72.4,1.18,0,.72-.25,1.28-.74,1.67-.5.39-1.2.58-2.11.58-.31,0-.63-.03-.95-.09-.32-.05-.66-.14-1-.26v-.95c.27.16.57.28.9.36.32.08.66.12,1.02.12.62,0,1.09-.12,1.41-.36.32-.24.49-.6.49-1.07,0-.42-.15-.76-.45-1-.3-.24-.72-.37-1.26-.37h-.85v-.81h.89c.48,0,.85-.09,1.11-.29.26-.19.39-.47.39-.84s-.14-.66-.4-.86c-.27-.2-.65-.3-1.14-.3-.27,0-.56.03-.87.09s-.65.15-1.02.27v-.88c.37-.1.72-.18,1.05-.23.32-.05.63-.08.93-.08.74,0,1.33.17,1.77.51s.66.8.66,1.38c0,.4-.12.74-.35,1.02-.23.28-.56.48-.98.58Z"/>
      <path d="M138.53,60.64c0,.38.11.68.35.89.24.21.57.31,1,.31s.75-.1.99-.31c.24-.21.36-.51.36-.89s-.12-.67-.36-.88c-.24-.21-.57-.32-.99-.32s-.76.11-1,.32c-.24.21-.35.5-.35.88ZM138.89,62.2c-.42-.1-.75-.3-.99-.59-.24-.29-.35-.64-.35-1.06,0-.58.2-1.04.62-1.38.41-.34.98-.51,1.71-.51s1.29.17,1.71.51c.41.34.62.8.62,1.38,0,.42-.12.77-.36,1.06-.24.29-.56.49-.98.59.47.11.84.33,1.11.65.26.32.4.72.4,1.18,0,.71-.22,1.25-.65,1.62-.44.38-1.06.56-1.86.56s-1.42-.18-1.85-.56c-.43-.37-.64-.91-.64-1.62,0-.46.13-.86.4-1.18.26-.32.63-.54,1.11-.65ZM139.88,62.62c-.47,0-.84.13-1.11.38-.27.25-.4.59-.4,1.03s.13.79.4,1.04c.27.25.64.37,1.11.37s.83-.12,1.1-.38c.27-.25.41-.59.41-1.03s-.14-.78-.4-1.03c-.27-.25-.64-.38-1.11-.38Z"/>
      <path d="M144.98,65.25h3.44v.83h-4.63v-.83c.37-.38.88-.9,1.53-1.56.64-.65,1.05-1.07,1.22-1.26.32-.35.54-.65.66-.9.12-.24.19-.49.19-.73,0-.38-.14-.7-.41-.94s-.62-.37-1.06-.37c-.31,0-.64.06-.98.16-.34.11-.71.27-1.1.49v-1c.4-.16.77-.28,1.11-.36s.66-.12.95-.12c.75,0,1.35.19,1.8.57.45.38.68.88.68,1.51,0,.3-.06.59-.17.85-.11.27-.31.59-.61.95-.08.1-.34.37-.78.82-.44.45-1.05,1.08-1.84,1.89Z"/>
      <polygon points="150.59 64.84 151.62 64.84 151.62 65.68 150.82 67.23 150.19 67.23 150.59 65.68 150.59 64.84"/>
      <polygon points="156.76 58.79 160.95 58.79 160.95 59.62 157.75 59.62 157.75 61.77 160.64 61.77 160.64 62.6 157.75 62.6 157.75 66.08 156.76 66.08 156.76 58.79"/>
      <path d="M162.59,63.53h6.26v.83h-6.26v-.83ZM162.59,61.54h6.26v.82h-6.26v-.82Z"/>
      <path d="M175.17,58.95v.9c-.25-.12-.5-.21-.75-.27-.26-.06-.51-.09-.75-.09-.66,0-1.16.22-1.5.66-.34.44-.54,1.11-.58,1.99.19-.28.43-.5.72-.65.29-.15.61-.23.96-.23.73,0,1.31.23,1.73.67.42.44.64,1.05.64,1.81s-.23,1.35-.67,1.8c-.44.45-1.03.67-1.76.67-.84,0-1.49-.32-1.93-.96-.45-.64-.67-1.58-.67-2.81,0-1.15.27-2.07.82-2.75.54-.68,1.28-1.03,2.2-1.03.24,0,.49.03.75.07.25.05.51.12.79.22ZM173.21,62.04c-.44,0-.79.16-1.05.46s-.39.72-.39,1.24.13.95.39,1.25.61.45,1.05.45.79-.15,1.05-.45c.26-.3.39-.72.39-1.25s-.13-.94-.39-1.24c-.26-.3-.61-.46-1.05-.46Z"/>
      <polyline class="cls-7" points="87.12 77.26 97.12 77.26 107.12 77.26"/>
      <polygon class="cls-36" points="97.12 74.26 94.12 80.26 100.12 80.26 97.12 74.26"/>
      <polygon class="cls-8" points="97.12 74.26 94.12 80.26 100.12 80.26 97.12 74.26"/>
      <polygon points="117.98 80.76 115.2 73.47 116.23 73.47 118.54 79.61 120.85 73.47 121.88 73.47 119.1 80.76 117.98 80.76"/>
      <path d="M123.02,78.21h6.26v.83h-6.26v-.83ZM123.02,76.22h6.26v.82h-6.26v-.82Z"/>
      <path d="M134.4,76.83c.47.1.84.31,1.1.63.26.32.4.72.4,1.18,0,.72-.25,1.28-.74,1.67-.5.39-1.2.58-2.11.58-.31,0-.63-.03-.95-.09-.32-.05-.66-.14-1-.26v-.95c.27.16.57.28.9.36.32.08.66.12,1.02.12.62,0,1.09-.12,1.41-.36.32-.24.49-.6.49-1.07,0-.42-.15-.76-.45-1-.3-.24-.72-.37-1.26-.37h-.85v-.81h.89c.48,0,.85-.09,1.11-.29.26-.19.39-.47.39-.84s-.14-.66-.4-.86c-.27-.2-.65-.3-1.14-.3-.27,0-.56.03-.87.09s-.65.15-1.02.27v-.88c.37-.1.72-.18,1.05-.23.32-.05.63-.08.93-.08.74,0,1.33.17,1.77.51s.66.8.66,1.38c0,.4-.12.74-.35,1.02-.23.28-.56.48-.98.58Z"/>
      <path d="M138.53,75.32c0,.38.11.68.35.89.24.21.57.31,1,.31s.75-.1.99-.31c.24-.21.36-.51.36-.89s-.12-.67-.36-.88c-.24-.21-.57-.32-.99-.32s-.76.11-1,.32c-.24.21-.35.5-.35.88ZM138.89,76.88c-.42-.1-.75-.3-.99-.59-.24-.29-.35-.64-.35-1.06,0-.58.2-1.04.62-1.38.41-.34.98-.51,1.71-.51s1.29.17,1.71.51c.41.34.62.8.62,1.38,0,.42-.12.77-.36,1.06-.24.29-.56.49-.98.59.47.11.84.33,1.11.65.26.32.4.72.4,1.18,0,.71-.22,1.25-.65,1.62-.44.38-1.06.56-1.86.56s-1.42-.18-1.85-.56c-.43-.37-.64-.91-.64-1.62,0-.46.13-.86.4-1.18.26-.32.63-.54,1.11-.65ZM139.88,77.3c-.47,0-.84.13-1.11.38-.27.25-.4.59-.4,1.03s.13.79.4,1.04c.27.25.64.37,1.11.37s.83-.12,1.1-.38c.27-.25.41-.59.41-1.03s-.14-.78-.4-1.03c-.27-.25-.64-.38-1.11-.38Z"/>
      <path d="M144.98,79.93h3.44v.83h-4.63v-.83c.37-.38.88-.9,1.53-1.56.64-.65,1.05-1.07,1.22-1.26.32-.35.54-.65.66-.9.12-.24.19-.49.19-.73,0-.38-.14-.7-.41-.94s-.62-.37-1.06-.37c-.31,0-.64.06-.98.16-.34.11-.71.27-1.1.49v-1c.4-.16.77-.28,1.11-.36s.66-.12.95-.12c.75,0,1.35.19,1.8.57.45.38.68.88.68,1.51,0,.3-.06.59-.17.85-.11.27-.31.59-.61.95-.08.1-.34.37-.78.82-.44.45-1.05,1.08-1.84,1.89Z"/>
      <polygon points="150.59 79.52 151.62 79.52 151.62 80.36 150.82 81.91 150.19 81.91 150.59 80.36 150.59 79.52"/>
      <polygon points="156.76 73.47 160.95 73.47 160.95 74.3 157.75 74.3 157.75 76.45 160.64 76.45 160.64 77.28 157.75 77.28 157.75 80.76 156.76 80.76 156.76 73.47"/>
      <path d="M162.59,78.21h6.26v.83h-6.26v-.83ZM162.59,76.22h6.26v.82h-6.26v-.82Z"/>
      <path d="M171.83,79.93h3.44v.83h-4.63v-.83c.37-.38.88-.9,1.53-1.56.64-.65,1.05-1.07,1.22-1.26.32-.35.54-.65.66-.9.12-.24.19-.49.19-.73,0-.38-.14-.7-.41-.94s-.62-.37-1.06-.37c-.31,0-.64.06-.98.16-.34.11-.71.27-1.1.49v-1c.4-.16.77-.28,1.11-.36s.66-.12.95-.12c.75,0,1.35.19,1.8.57.45.38.68.88.68,1.51,0,.3-.06.59-.17.85-.11.27-.31.59-.61.95-.08.1-.34.37-.78.82-.44.45-1.05,1.08-1.84,1.89Z"/>
      <path d="M179.79,73.47h1.24v4.75h1.04v.82h-1.04v1.72h-.98v-1.72h-3.29v-.95l3.03-4.62ZM180.05,74.33l-2.49,3.89h2.49v-3.89Z"/>
    </g>
  </g>
</svg>